<?xml version="1.0" standalone="no"?>
<!DOCTYPE svg PUBLIC "-//W3C//DTD SVG 20010904//EN"
 "http://www.w3.org/TR/2001/REC-SVG-20010904/DTD/svg10.dtd">
<svg version="1.0" xmlns="http://www.w3.org/2000/svg"
 width="2000.000000pt" height="2000.000000pt" viewBox="0 0 2000.000000 2000.000000"
 preserveAspectRatio="xMidYMid meet">

<g transform="translate(0.000000,2000.000000) scale(0.100000,-0.100000)"
fill="#00ff7f" stroke="none">
<path d="M9605 19734 c-33 -2 -141 -8 -240 -14 -1698 -102 -3354 -652 -4795
-1595 -388 -253 -798 -568 -1170 -899 -172 -153 -601 -581 -751 -751 -593
-666 -1058 -1346 -1449 -2120 -813 -1607 -1156 -3381 -1005 -5190 128 -1531
624 -3011 1448 -4327 283 -451 630 -911 1006 -1333 152 -171 581 -600 751
-751 1295 -1150 2797 -1918 4478 -2289 931 -205 1981 -272 2952 -189 1857 158
3604 824 5085 1936 896 674 1658 1479 2277 2407 86 129 156 237 154 238 -1 2
-47 -27 -102 -64 -184 -123 -394 -210 -616 -255 -96 -19 -144 -23 -323 -23
-179 0 -227 4 -324 23 -236 48 -457 143 -651 280 -122 86 -336 300 -423 422
-301 423 -384 964 -225 1470 40 128 143 334 226 449 334 469 907 747 1477 717
444 -23 789 -173 1104 -480 303 -296 459 -615 502 -1025 6 -62 9 -154 6 -204
-2 -52 -1 -84 4 -75 4 8 46 107 92 219 481 1171 727 2414 727 3679 -1 1829
-510 3599 -1483 5152 -776 1238 -1859 2319 -3105 3098 -547 342 -1185 656
-1782 878 -916 340 -1793 528 -2815 602 -146 11 -910 21 -1030 14z m4385
-9284 c0 -5128 -2 -6040 -14 -6040 -7 0 -45 39 -84 88 -94 118 -277 293 -392
374 -239 170 -519 276 -855 324 -164 24 -522 24 -692 1 -248 -34 -483 -108
-903 -284 -416 -175 -887 -344 -1119 -403 -264 -67 -542 -94 -951 -94 -422 1
-728 32 -1080 110 -1134 253 -2076 950 -2648 1960 -278 489 -470 1083 -546
1684 -34 266 -41 384 -41 740 0 470 25 735 106 1134 199 988 698 1881 1389
2489 547 481 1193 799 1890 931 792 150 1662 71 2305 -209 373 -162 724 -420
984 -719 l51 -60 0 2007 0 2007 1300 0 1300 0 0 -6040z"/>
<path d="M9195 11194 c-536 -56 -962 -249 -1306 -593 -514 -515 -730 -1298
-584 -2112 165 -916 842 -1581 1745 -1714 159 -23 419 -30 576 -16 522 48 981
261 1319 612 256 265 435 590 530 963 59 233 70 328 70 641 0 313 -11 408 -70
641 -180 704 -666 1241 -1325 1466 -108 37 -257 73 -385 94 -96 15 -480 27
-570 18z"/>
</g>
</svg>
